<mxfile host="app.diagrams.net" modified="2022-12-05T08:31:01.398Z" agent="5.0 (Macintosh; Intel Mac OS X 10_14_6) AppleWebKit/537.36 (KHTML, like Gecko) Chrome/107.0.0.0 Safari/537.36" version="20.6.0" etag="_h-l8Qv6Uoaj_psFXFRD" type="github">
  <diagram id="evLqnHeC2Lt981sECSwZ" name="第 1 页">
    <mxGraphModel dx="2102" dy="1187" grid="1" gridSize="10" guides="1" tooltips="1" connect="1" arrows="1" fold="1" page="1" pageScale="1" pageWidth="827" pageHeight="1169" math="0" shadow="0">
      <root>
        <mxCell id="0" />
        <mxCell id="1" parent="0" />
        <mxCell id="_Ks45qPeVAlSuutO4Y-K-2" style="edgeStyle=orthogonalEdgeStyle;rounded=0;orthogonalLoop=1;jettySize=auto;html=1;fontSize=15;strokeWidth=3;sketch=1;" edge="1" parent="1" source="_Ks45qPeVAlSuutO4Y-K-3">
          <mxGeometry relative="1" as="geometry">
            <mxPoint x="220" y="960" as="targetPoint" />
          </mxGeometry>
        </mxCell>
        <mxCell id="_Ks45qPeVAlSuutO4Y-K-3" value="协调者" style="rounded=1;whiteSpace=wrap;html=1;strokeWidth=2;fillWeight=4;hachureGap=8;hachureAngle=45;fillColor=#d5e8d4;sketch=0;strokeColor=#82b366;fontSize=15;fontStyle=1" vertex="1" parent="1">
          <mxGeometry x="160" y="240" width="120" height="60" as="geometry" />
        </mxCell>
        <mxCell id="_Ks45qPeVAlSuutO4Y-K-4" style="edgeStyle=orthogonalEdgeStyle;rounded=0;orthogonalLoop=1;jettySize=auto;html=1;fontSize=15;strokeWidth=3;sketch=1;" edge="1" parent="1" source="_Ks45qPeVAlSuutO4Y-K-5">
          <mxGeometry relative="1" as="geometry">
            <mxPoint x="420" y="960" as="targetPoint" />
          </mxGeometry>
        </mxCell>
        <mxCell id="_Ks45qPeVAlSuutO4Y-K-5" value="参与者A" style="rounded=1;whiteSpace=wrap;html=1;strokeWidth=2;fillWeight=4;hachureGap=8;hachureAngle=45;fillColor=#dae8fc;sketch=0;strokeColor=#6c8ebf;fontSize=15;fontStyle=1" vertex="1" parent="1">
          <mxGeometry x="360" y="240" width="120" height="60" as="geometry" />
        </mxCell>
        <mxCell id="_Ks45qPeVAlSuutO4Y-K-6" style="edgeStyle=orthogonalEdgeStyle;rounded=0;orthogonalLoop=1;jettySize=auto;html=1;fontSize=15;strokeWidth=3;sketch=1;" edge="1" parent="1" source="_Ks45qPeVAlSuutO4Y-K-7">
          <mxGeometry relative="1" as="geometry">
            <mxPoint x="620" y="960" as="targetPoint" />
          </mxGeometry>
        </mxCell>
        <mxCell id="_Ks45qPeVAlSuutO4Y-K-7" value="参与者B" style="rounded=1;whiteSpace=wrap;html=1;strokeWidth=2;fillWeight=4;hachureGap=8;hachureAngle=45;fillColor=#dae8fc;sketch=0;strokeColor=#6c8ebf;fontSize=15;fontStyle=1" vertex="1" parent="1">
          <mxGeometry x="560" y="240" width="120" height="60" as="geometry" />
        </mxCell>
        <mxCell id="_Ks45qPeVAlSuutO4Y-K-12" value="" style="endArrow=classic;html=1;rounded=0;sketch=1;strokeWidth=3;fontSize=14;fillColor=#dae8fc;strokeColor=#6c8ebf;" edge="1" parent="1">
          <mxGeometry width="50" height="50" relative="1" as="geometry">
            <mxPoint x="220.00000000000045" y="399.9999999999998" as="sourcePoint" />
            <mxPoint x="420.00000000000045" y="399.9999999999998" as="targetPoint" />
          </mxGeometry>
        </mxCell>
        <mxCell id="_Ks45qPeVAlSuutO4Y-K-19" value="" style="endArrow=classic;html=1;rounded=0;sketch=1;strokeWidth=3;fontSize=15;fillColor=#dae8fc;strokeColor=#6c8ebf;" edge="1" parent="1">
          <mxGeometry width="50" height="50" relative="1" as="geometry">
            <mxPoint x="420.00000000000045" y="539.9999999999998" as="sourcePoint" />
            <mxPoint x="220.00000000000045" y="539.9999999999998" as="targetPoint" />
          </mxGeometry>
        </mxCell>
        <mxCell id="_Ks45qPeVAlSuutO4Y-K-79" value="" style="endArrow=classic;html=1;rounded=0;sketch=1;strokeWidth=3;fontSize=14;fillColor=#dae8fc;strokeColor=#6c8ebf;" edge="1" parent="1">
          <mxGeometry width="50" height="50" relative="1" as="geometry">
            <mxPoint x="420" y="439.9999999999998" as="sourcePoint" />
            <mxPoint x="420" y="520" as="targetPoint" />
            <Array as="points">
              <mxPoint x="440" y="440" />
              <mxPoint x="440" y="520" />
            </Array>
          </mxGeometry>
        </mxCell>
        <mxCell id="_Ks45qPeVAlSuutO4Y-K-80" value="" style="endArrow=classic;html=1;rounded=0;sketch=1;strokeWidth=3;fontSize=14;fillColor=#dae8fc;strokeColor=#6c8ebf;" edge="1" parent="1">
          <mxGeometry width="50" height="50" relative="1" as="geometry">
            <mxPoint x="220" y="419.9999999999998" as="sourcePoint" />
            <mxPoint x="620" y="420" as="targetPoint" />
          </mxGeometry>
        </mxCell>
        <mxCell id="_Ks45qPeVAlSuutO4Y-K-81" value="" style="endArrow=classic;html=1;rounded=0;sketch=1;strokeWidth=3;fontSize=15;fillColor=#dae8fc;strokeColor=#6c8ebf;" edge="1" parent="1">
          <mxGeometry width="50" height="50" relative="1" as="geometry">
            <mxPoint x="620" y="560" as="sourcePoint" />
            <mxPoint x="220" y="559.9999999999998" as="targetPoint" />
          </mxGeometry>
        </mxCell>
        <mxCell id="_Ks45qPeVAlSuutO4Y-K-82" value="" style="endArrow=classic;html=1;rounded=0;sketch=1;strokeWidth=3;fontSize=14;fillColor=#dae8fc;strokeColor=#6c8ebf;" edge="1" parent="1">
          <mxGeometry width="50" height="50" relative="1" as="geometry">
            <mxPoint x="620" y="459.9999999999998" as="sourcePoint" />
            <mxPoint x="620" y="540" as="targetPoint" />
            <Array as="points">
              <mxPoint x="640" y="460" />
              <mxPoint x="640" y="540" />
            </Array>
          </mxGeometry>
        </mxCell>
        <mxCell id="_Ks45qPeVAlSuutO4Y-K-84" value="" style="endArrow=classic;html=1;rounded=0;sketch=1;strokeWidth=3;fontSize=14;fillColor=#d5e8d4;strokeColor=#82b366;" edge="1" parent="1">
          <mxGeometry width="50" height="50" relative="1" as="geometry">
            <mxPoint x="220" y="639.9999999999998" as="sourcePoint" />
            <mxPoint x="420" y="639.9999999999998" as="targetPoint" />
          </mxGeometry>
        </mxCell>
        <mxCell id="_Ks45qPeVAlSuutO4Y-K-85" value="" style="endArrow=classic;html=1;rounded=0;sketch=1;strokeWidth=3;fontSize=15;fillColor=#d5e8d4;strokeColor=#82b366;" edge="1" parent="1">
          <mxGeometry width="50" height="50" relative="1" as="geometry">
            <mxPoint x="420" y="779.9999999999998" as="sourcePoint" />
            <mxPoint x="220" y="779.9999999999998" as="targetPoint" />
          </mxGeometry>
        </mxCell>
        <mxCell id="_Ks45qPeVAlSuutO4Y-K-86" value="" style="endArrow=classic;html=1;rounded=0;sketch=1;strokeWidth=3;fontSize=14;fillColor=#d5e8d4;strokeColor=#82b366;" edge="1" parent="1">
          <mxGeometry width="50" height="50" relative="1" as="geometry">
            <mxPoint x="420" y="679.9999999999998" as="sourcePoint" />
            <mxPoint x="420" y="760" as="targetPoint" />
            <Array as="points">
              <mxPoint x="440" y="680" />
              <mxPoint x="440" y="760" />
            </Array>
          </mxGeometry>
        </mxCell>
        <mxCell id="_Ks45qPeVAlSuutO4Y-K-87" value="" style="endArrow=classic;html=1;rounded=0;sketch=1;strokeWidth=3;fontSize=14;fillColor=#d5e8d4;strokeColor=#82b366;" edge="1" parent="1">
          <mxGeometry width="50" height="50" relative="1" as="geometry">
            <mxPoint x="220" y="659.9999999999998" as="sourcePoint" />
            <mxPoint x="620" y="660" as="targetPoint" />
          </mxGeometry>
        </mxCell>
        <mxCell id="_Ks45qPeVAlSuutO4Y-K-88" value="" style="endArrow=classic;html=1;rounded=0;sketch=1;strokeWidth=3;fontSize=15;fillColor=#d5e8d4;strokeColor=#82b366;" edge="1" parent="1">
          <mxGeometry width="50" height="50" relative="1" as="geometry">
            <mxPoint x="620" y="800" as="sourcePoint" />
            <mxPoint x="220" y="799.9999999999998" as="targetPoint" />
          </mxGeometry>
        </mxCell>
        <mxCell id="_Ks45qPeVAlSuutO4Y-K-89" value="" style="endArrow=classic;html=1;rounded=0;sketch=1;strokeWidth=3;fontSize=14;fillColor=#d5e8d4;strokeColor=#82b366;" edge="1" parent="1">
          <mxGeometry width="50" height="50" relative="1" as="geometry">
            <mxPoint x="620" y="699.9999999999998" as="sourcePoint" />
            <mxPoint x="620" y="780" as="targetPoint" />
            <Array as="points">
              <mxPoint x="640" y="700" />
              <mxPoint x="640" y="780" />
            </Array>
          </mxGeometry>
        </mxCell>
        <mxCell id="_Ks45qPeVAlSuutO4Y-K-90" value="" style="shape=curlyBracket;whiteSpace=wrap;html=1;rounded=1;labelPosition=left;verticalLabelPosition=middle;align=right;verticalAlign=middle;" vertex="1" parent="1">
          <mxGeometry x="140" y="380" width="20" height="200" as="geometry" />
        </mxCell>
        <mxCell id="_Ks45qPeVAlSuutO4Y-K-91" value="准备阶段" style="text;strokeColor=none;fillColor=none;html=1;fontSize=20;fontStyle=1;verticalAlign=middle;align=center;" vertex="1" parent="1">
          <mxGeometry x="20" y="460" width="100" height="40" as="geometry" />
        </mxCell>
        <mxCell id="_Ks45qPeVAlSuutO4Y-K-92" value="" style="shape=curlyBracket;whiteSpace=wrap;html=1;rounded=1;labelPosition=left;verticalLabelPosition=middle;align=right;verticalAlign=middle;" vertex="1" parent="1">
          <mxGeometry x="140" y="620" width="20" height="200" as="geometry" />
        </mxCell>
        <mxCell id="_Ks45qPeVAlSuutO4Y-K-93" value="&lt;font style=&quot;font-size: 20px;&quot;&gt;提交阶段&lt;/font&gt;" style="text;strokeColor=none;fillColor=none;html=1;fontSize=24;fontStyle=1;verticalAlign=middle;align=center;" vertex="1" parent="1">
          <mxGeometry x="20" y="700" width="100" height="40" as="geometry" />
        </mxCell>
        <mxCell id="_Ks45qPeVAlSuutO4Y-K-94" value="事务执行（未提交）" style="text;strokeColor=none;fillColor=none;html=1;fontSize=15;fontStyle=1;verticalAlign=middle;align=center;fontColor=#6C8EBF;" vertex="1" parent="1">
          <mxGeometry x="640" y="460" width="160" height="40" as="geometry" />
        </mxCell>
        <mxCell id="_Ks45qPeVAlSuutO4Y-K-96" value="事务提交" style="text;strokeColor=none;fillColor=none;html=1;fontSize=15;fontStyle=1;verticalAlign=middle;align=center;fontColor=#82B366;" vertex="1" parent="1">
          <mxGeometry x="640" y="700" width="80" height="40" as="geometry" />
        </mxCell>
        <mxCell id="_Ks45qPeVAlSuutO4Y-K-97" value="事务提交" style="text;html=1;fontSize=15;fontStyle=1;verticalAlign=middle;align=center;fontColor=#82B366;" vertex="1" parent="1">
          <mxGeometry x="440" y="680" width="80" height="40" as="geometry" />
        </mxCell>
        <mxCell id="_Ks45qPeVAlSuutO4Y-K-98" value="事务执行（未提交）" style="text;html=1;fontSize=15;fontStyle=1;verticalAlign=middle;align=center;labelBackgroundColor=none;fontColor=#6C8EBF;" vertex="1" parent="1">
          <mxGeometry x="440" y="440" width="160" height="40" as="geometry" />
        </mxCell>
        <mxCell id="_Ks45qPeVAlSuutO4Y-K-99" value="&lt;font style=&quot;font-size: 15px;&quot;&gt;全部成功，执行提交&lt;/font&gt;" style="text;strokeColor=none;fillColor=none;html=1;fontSize=20;fontStyle=1;verticalAlign=middle;align=center;labelBackgroundColor=none;fontColor=#82B366;" vertex="1" parent="1">
          <mxGeometry x="220" y="580" width="150" height="40" as="geometry" />
        </mxCell>
      </root>
    </mxGraphModel>
  </diagram>
</mxfile>
